<?xml version="1.0" encoding="utf-8"?>
<!-- Generator: Adobe Illustrator 19.1.0, SVG Export Plug-In . SVG Version: 6.00 Build 0)  -->
<!DOCTYPE svg PUBLIC "-//W3C//DTD SVG 1.1//EN" "http://www.w3.org/Graphics/SVG/1.1/DTD/svg11.dtd">
<svg version="1.1" id="Layer_1" xmlns="http://www.w3.org/2000/svg" xmlns:xlink="http://www.w3.org/1999/xlink" x="0px" y="0px"
	 viewBox="0 0 32 40" style="enable-background:new 0 0 32 40;" xml:space="preserve">
<style type="text/css">
	.st0{fill:#EF8644;}
</style>
<g>
	<path class="st0" d="M31.2,22.1L31.2,22.1c-1.1-1.1-2.8-1.1-3.9,0l-8.5,8.5V2.8C18.8,1.2,17.5,0,16,0l0,0c-1.5,0-2.8,1.2-2.8,2.8
		v27.9l-8.5-8.5c-1.1-1.1-2.8-1.1-3.9,0l0,0c-1.1,1.1-1.1,2.8,0,3.9L14,39.2c1.1,1.1,2.8,1.1,3.9,0L31.2,26
		C32.3,24.9,32.3,23.2,31.2,22.1z"/>
</g>
</svg>
