<?xml version="1.0" encoding="utf-8"?>
<!-- Generator: Adobe Illustrator 19.1.0, SVG Export Plug-In . SVG Version: 6.00 Build 0)  -->
<!DOCTYPE svg PUBLIC "-//W3C//DTD SVG 1.1//EN" "http://www.w3.org/Graphics/SVG/1.1/DTD/svg11.dtd">
<svg version="1.1" id="Layer_1" xmlns="http://www.w3.org/2000/svg" xmlns:xlink="http://www.w3.org/1999/xlink" x="0px" y="0px"
	 viewBox="0 0 40 32" style="enable-background:new 0 0 40 32;" xml:space="preserve">
<style type="text/css">
	.st0{fill:#EF8644;}
</style>
<g>
	<path class="st0" d="M22.1,0.8L22.1,0.8c-1.1,1.1-1.1,2.8,0,3.9l8.5,8.5H2.8C1.2,13.2,0,14.5,0,16l0,0c0,1.5,1.2,2.8,2.8,2.8h27.9
		l-8.5,8.5c-1.1,1.1-1.1,2.8,0,3.9l0,0c1.1,1.1,2.8,1.1,3.9,0l13.2-13.2c1.1-1.1,1.1-2.8,0-3.9L26,0.8C24.9-0.3,23.2-0.3,22.1,0.8z"
		/>
</g>
</svg>
