<?xml version="1.0" encoding="utf-8"?>
<!-- Generator: Adobe Illustrator 19.1.0, SVG Export Plug-In . SVG Version: 6.00 Build 0)  -->
<!DOCTYPE svg PUBLIC "-//W3C//DTD SVG 1.1//EN" "http://www.w3.org/Graphics/SVG/1.1/DTD/svg11.dtd">
<svg version="1.1" id="Layer_1" xmlns="http://www.w3.org/2000/svg" xmlns:xlink="http://www.w3.org/1999/xlink" x="0px" y="0px"
	 viewBox="0 0 40 32" style="enable-background:new 0 0 40 32;" xml:space="preserve">
<style type="text/css">
	.st0{fill:#EF8644;}
</style>
<g>
	<path class="st0" d="M17.9,31.2L17.9,31.2c1.1-1.1,1.1-2.8,0-3.9l-8.5-8.5h27.9c1.5,0,2.8-1.2,2.8-2.8l0,0c0-1.5-1.2-2.8-2.8-2.8
		H9.4l8.5-8.5c1.1-1.1,1.1-2.8,0-3.9l0,0c-1.1-1.1-2.8-1.1-3.9,0L0.8,14c-1.1,1.1-1.1,2.8,0,3.9L14,31.2
		C15.1,32.3,16.8,32.3,17.9,31.2z"/>
</g>
</svg>
